<svg width="63" height="45" viewBox="0 0 63 45" fill="none" xmlns="http://www.w3.org/2000/svg">
<g filter="url(#filter0_i_314_522)">
<rect width="63" height="44.7166" rx="22.3583" fill="#60E7F1"/>
<path d="M10.7649 33.1861C10.9125 32.8036 10.5889 32.2717 10.2801 31.8883C10.1843 31.7738 10.08 31.663 9.96754 31.5564C7.31866 28.7051 5.90682 25.3647 5.90699 21.9493C5.86269 12.1457 17.3159 4.19016 31.4786 4.19016C43.83 4.19016 54.1414 10.2636 56.5494 18.3257C56.9108 19.5209 57.0935 20.7399 57.0945 21.9624C57.0945 31.78 46.083 39.8604 31.9203 39.8604C29.6673 39.8604 26.6293 39.4586 24.9719 39.1294C23.3144 38.8001 21.6594 38.3634 21.2325 38.2464C20.7954 38.1273 20.3312 38.066 19.863 38.0656C19.3524 38.0643 18.8467 38.1365 18.3766 38.2778L10.0291 40.4159C9.84665 40.4718 9.6533 40.5077 9.45566 40.5224C9.29933 40.5221 9.14465 40.4997 9.00056 40.4567C8.85647 40.4137 8.72583 40.3508 8.61621 40.2717C8.50658 40.1925 8.42015 40.0988 8.3619 39.9958C8.30366 39.8929 8.27476 39.7827 8.27687 39.6718C8.28714 39.5744 8.31188 39.4781 8.3507 39.3844L10.7649 33.1861Z" stroke="#A749D6" stroke-width="1.00189" stroke-miterlimit="10" stroke-linecap="round"/>
<path d="M19.6896 25.1566C21.8659 25.1566 23.63 23.9044 23.63 22.3597C23.63 20.8151 21.8659 19.5629 19.6896 19.5629C17.5134 19.5629 15.7492 20.8151 15.7492 22.3597C15.7492 23.9044 17.5134 25.1566 19.6896 25.1566Z" fill="#A749D6"/>
<path d="M31.5016 25.1566C33.6779 25.1566 35.442 23.9044 35.442 22.3597C35.442 20.8151 33.6779 19.5629 31.5016 19.5629C29.3254 19.5629 27.5612 20.8151 27.5612 22.3597C27.5612 23.9044 29.3254 25.1566 31.5016 25.1566Z" fill="#A749D6"/>
<path d="M43.3156 25.1566C45.4918 25.1566 47.256 23.9044 47.256 22.3597C47.256 20.8151 45.4918 19.5629 43.3156 19.5629C41.1394 19.5629 39.3752 20.8151 39.3752 22.3597C39.3752 23.9044 41.1394 25.1566 43.3156 25.1566Z" fill="#A749D6"/>
</g>
<defs>
<filter id="filter0_i_314_522" x="0" y="0" width="63" height="48.7166" filterUnits="userSpaceOnUse" color-interpolation-filters="sRGB">
<feFlood flood-opacity="0" result="BackgroundImageFix"/>
<feBlend mode="normal" in="SourceGraphic" in2="BackgroundImageFix" result="shape"/>
<feColorMatrix in="SourceAlpha" type="matrix" values="0 0 0 0 0 0 0 0 0 0 0 0 0 0 0 0 0 0 127 0" result="hardAlpha"/>
<feOffset dy="4"/>
<feGaussianBlur stdDeviation="2"/>
<feComposite in2="hardAlpha" operator="arithmetic" k2="-1" k3="1"/>
<feColorMatrix type="matrix" values="0 0 0 0 0 0 0 0 0 0 0 0 0 0 0 0 0 0 0.25 0"/>
<feBlend mode="normal" in2="shape" result="effect1_innerShadow_314_522"/>
</filter>
</defs>
</svg>
